<svg viewBox="0 0 98 86" fill="none" xmlns="http://www.w3.org/2000/svg">
<mask id="mask0_769_222" style="mask-type:luminance" maskUnits="userSpaceOnUse" x="0" y="0" width="98" height="86">
<path d="M97.3333 0H0V85.3333H97.3333V0Z" fill="white"/>
</mask>
<g mask="url(#mask0_769_222)">
<mask id="mask1_769_222" style="mask-type:luminance" maskUnits="userSpaceOnUse" x="0" y="0" width="97" height="85">
<path d="M0.453125 0.583374H96.3958V84.5417H0.453125V0.583374Z" fill="white"/>
</mask>
<g mask="url(#mask1_769_222)">
<path fill-rule="evenodd" clip-rule="evenodd" d="M42.2813 0.588562C52.9948 0.588562 62.75 4.60419 70.151 11.2448L69.5521 11.6511C68.1615 12.6094 66.7396 13.6198 65.3698 14.6615C59.1146 9.44273 51.0521 6.32294 42.2813 6.32294C22.3385 6.32294 6.16146 22.4688 6.16146 42.4167C6.16146 62.3646 22.3385 78.5417 42.2813 78.5417C62.2292 78.5417 78.3802 62.3646 78.3802 42.4167C78.3802 36.8698 77.151 31.6302 74.9063 26.9531C76.1927 25.3125 77.5313 23.7292 78.8958 22.1979C82.2292 28.1823 84.1146 35.0938 84.1146 42.4167C84.1146 65.5365 65.3698 84.25 42.2813 84.25C19.1667 84.25 0.453125 65.5365 0.453125 42.4167C0.453125 19.3281 19.1667 0.588562 42.2813 0.588562ZM41.4896 45.8334C35.8594 38.8698 27.3594 27.4219 20.75 31.875C16.4896 34.7396 14.4948 37.9948 16.2708 41.6563C18.1302 45.4531 34.849 61.8177 39.1146 64.1979C44.901 67.474 48.9219 63.4063 52.5521 56.3802C61.0781 39.9063 71.7917 18.2656 96.349 2.03648C87.4167 3.6771 70.125 15.5886 65.5573 19.4167C54.1927 29.0313 44.1667 42.8021 41.4896 45.8334Z" fill="#357C8A"/>
</g>
</g>
</svg>
