<svg viewBox="0 0 21 24" fill="none" xmlns="http://www.w3.org/2000/svg">
<path d="M14.2344 0.0371036C14.6541 0.0580665 14.7001 0.197819 14.6355 0.622319C14.0766 4.26288 14.1173 8.40015 14.9469 12.0326L13.6644 12.0349C13.343 12.0366 13.3704 12.0052 13.3169 11.8154C13.1864 11.3472 13.0246 10.8353 12.6864 10.6001C12.3528 10.3678 11.979 10.2495 11.6448 10.3212L7.56785 11.1958C6.55544 8.66742 5.82074 6.02027 5.65132 2.80479C5.62047 2.21259 5.6292 1.96511 6.06059 1.65824C8.57851 0.0761178 11.536 -0.0991555 14.2344 0.0371036Z" />
<path d="M18.1302 2.33019C18.4528 2.44606 18.3881 2.53283 18.2758 2.78613C16.97 5.76286 16.4902 9.06744 16.0024 12.0308L15.5326 12.0325C14.9009 8.92244 14.7094 5.10544 14.9766 2.02098C16.0379 1.86376 17.1108 1.96275 18.1302 2.33019Z" />
<mask id="mask0_557_3032" style="mask-type:luminance" maskUnits="userSpaceOnUse" x="16" y="4" width="5" height="6">
<path d="M16.7461 4.78931H20.1309V9.85768H16.7461V4.78931Z" fill="white"/>
</mask>
<g mask="url(#mask0_557_3032)">
<path d="M18.047 4.81787C18.7561 4.90463 19.4483 5.27032 19.9466 5.74606C20.1253 5.92017 20.0316 6.01683 19.9635 6.07681C18.894 7.00908 17.9532 8.35944 17.1353 9.85713H16.8203C17.1504 7.93436 17.6051 6.2451 18.047 4.81787Z" />
</g>
<path d="M11.7056 10.8911C12.3181 10.7781 12.6784 11.2987 12.7331 11.7733L13.2752 16.5662C13.2752 16.9325 13.0528 17.2813 12.6598 17.4822C12.2668 17.6814 11.7667 17.6814 11.3755 17.4834C11.0064 17.297 10.8772 16.9477 10.7567 16.497L10.0982 13.8189C10.001 13.4259 9.59289 13.4614 9.66449 13.8498L10.4091 17.8089C10.5797 18.7138 9.49275 20.141 7.3713 19.8108C6.97192 19.7194 7.03829 20.2976 7.44756 20.3314C8.78482 20.541 9.72853 20.0735 10.3614 19.4457C10.3532 19.8266 10.4568 20.2091 10.6233 20.5358C10.7561 20.7961 10.947 21.0115 11.1729 21.1699C10.947 21.3283 10.7543 21.5432 10.6204 21.8046C10.3328 22.3625 10.3247 23.045 10.6187 23.5976C10.7392 23.8276 10.8026 23.9993 10.5436 23.9993L7.14658 23.9976C6.73207 23.9959 6.48522 23.8969 6.28437 23.7356C6.0841 23.576 5.92692 23.3408 5.7674 23.0613C5.71675 22.9727 5.62127 22.9186 5.51881 22.9186H5.02105C4.6502 22.9186 4.62284 22.7468 4.67698 22.4399C5.12817 19.9145 5.25508 17.6208 4.6502 15.1874C4.55938 14.8287 4.57161 14.8188 4.80448 14.5515L6.61272 12.4674C7.04353 11.9719 7.38818 11.6889 8.19158 11.5398L11.7056 10.8911Z" />
<path d="M17.2412 12.6033C17.6138 12.6033 17.9637 12.8222 18.1628 13.2094C18.3619 13.5978 18.3602 14.0893 18.1616 14.4771C18.0371 14.7194 17.8583 14.9593 17.4933 14.961L13.669 14.9744L13.4023 12.6073L17.2412 12.6033Z" />
<path d="M0.923558 14.4724C1.94411 17.593 1.72463 20.3263 0.935784 23.7042C0.86534 24.0024 0.999823 24 1.1803 24H3.32387C3.68424 24 3.70986 23.9837 3.77273 23.7071C4.53131 20.4136 4.74555 17.7444 3.84434 14.7175C3.67726 14.1562 3.57538 14.1871 2.9769 14.1871H1.1314C0.789075 14.1865 0.85195 14.2517 0.923558 14.4724Z" />
<path d="M16.774 15.5357C17.1466 15.5339 17.4988 15.7552 17.6956 16.1424C17.8947 16.5308 17.8947 17.0205 17.6944 17.4107C17.4936 17.7997 17.1419 18.0401 16.7711 18.0233L13.607 17.873C13.4725 17.8678 13.4247 17.6593 13.5016 17.5254C13.6768 17.2232 13.8911 16.9192 13.8503 16.5657L13.7356 15.5403L16.774 15.5357Z" />
<path d="M11.9805 18.3688C13.4598 18.4312 14.9408 18.5336 16.4207 18.5977C16.7922 18.6146 17.1444 18.8172 17.3429 19.2056C17.542 19.5928 17.5403 20.0826 17.3394 20.4733C17.1403 20.8623 16.7852 21.083 16.4143 21.0847L12.0922 20.8832C12.0806 20.8832 12.0701 20.8809 12.0585 20.8832C11.6859 20.8832 11.3337 20.6637 11.1369 20.2759C10.9273 19.8677 10.8662 19.343 11.0531 18.9808C11.2539 18.5913 11.6079 18.3537 11.9805 18.3688Z" />
<path d="M12.0538 21.4539L16.1832 21.646C16.3398 21.7502 16.4772 21.8964 16.5762 22.0886C16.7735 22.4764 16.7735 22.9696 16.5733 23.358C16.3742 23.747 16.0115 23.9648 15.6901 23.9648L12.1848 23.9741C11.722 23.9752 11.3034 23.6742 11.127 23.3353C10.9244 22.9492 10.9279 22.456 11.1287 22.0664C11.329 21.6775 11.6812 21.4562 12.0538 21.4539Z" />
</svg>
