<svg viewBox="0 0 20 24" fill="none" xmlns="http://www.w3.org/2000/svg">
<mask id="mask0_557_3048" style="mask-type:luminance" maskUnits="userSpaceOnUse" x="0" y="0">
<path d="M0.0664062 0H19.9324V24H0.0664062V0Z" fill="white"/>
</mask>
<g mask="url(#mask0_557_3048)">
<path d="M10.6078 6.50466L14.5423 11.7376L15.1438 11.3059C15.5423 11.0206 15.6178 10.47 15.3125 10.0897L11.175 4.92712C10.8331 4.86479 9.95886 4.70012 9.01999 4.52344C7.64085 4.26442 6.14164 3.98196 6.04844 3.96252C5.41205 3.83044 5.07412 4.26785 4.9672 4.7876C4.92432 4.9963 4.95176 5.15926 5.09585 5.32965C5.2205 5.4766 5.4069 5.58123 5.60988 5.6144L10.4357 6.40003C10.5015 6.41146 10.5644 6.44806 10.6078 6.50466ZM12.5742 5.80995L14.3507 8.02675L14.9185 5.44801L14.2529 0.783408C14.1071 -0.247515 12.5502 -0.0222334 12.6926 1.00126L13.15 4.29987C13.1574 4.34904 13.15 4.3965 13.1334 4.43767L12.5742 5.80995ZM13.588 14.3712L14.3393 13.7869C14.6955 13.5107 14.7716 13.0121 14.52 12.6422L14.2558 12.2557L10.2419 6.91635L9.36478 6.7734L5.21192 9.3813C5.28911 9.97481 5.96839 10.6346 6.61279 10.3019L9.37507 8.87013C9.49171 8.80895 9.63923 8.84268 9.71871 8.95304L13.588 14.3712ZM5.14159 0.65876C5.10042 0.30597 5.63733 0.244789 5.6785 0.597579L5.77684 1.43524C5.79342 1.5839 5.6865 1.7177 5.53898 1.73428C5.39032 1.75144 5.25652 1.64566 5.23994 1.49699L5.14159 0.65876ZM2.14602 1.49814C2.06769 1.37234 2.106 1.20538 2.23351 1.12705C2.3593 1.04814 2.52626 1.08817 2.60459 1.21568L3.06831 1.96414C3.14664 2.09107 3.10833 2.25689 2.98025 2.33523C2.85503 2.41356 2.6875 2.37354 2.60917 2.24774L2.14602 1.49814ZM0.223691 3.97739C0.0990425 3.89619 0.0641638 3.72866 0.145357 3.60287C0.22655 3.47822 0.393511 3.44277 0.518159 3.52396L1.22374 3.98425C1.34953 4.06544 1.38498 4.2324 1.30322 4.35705C1.22202 4.48284 1.05506 4.51829 0.930414 4.43653L0.223691 3.97739ZM19.933 18.4258H14.8493V23.5095H19.933V18.4258ZM15.8551 21.3647C15.6035 21.1114 15.9854 20.7295 16.2387 20.9811L17.1267 21.869L18.5013 19.4887C18.6797 19.1817 19.1463 19.4515 18.9679 19.7603L17.4281 22.4277C17.3326 22.6072 17.1164 22.6255 16.9924 22.5008L15.8551 21.3647ZM2.68579 18.5407C3.12663 19.1456 3.80705 19.5384 4.55151 19.6116C4.90602 19.6471 4.85227 20.184 4.49777 20.1485C3.84422 20.0828 3.22269 19.8123 2.73039 19.3829V23.9252L8.87247 23.864V19.8152C8.87247 19.7311 8.9125 19.6539 8.97368 19.6053L13.0791 15.8727C13.3981 15.5829 13.4485 15.106 13.1986 14.7549L9.41567 9.4562L6.86151 10.7799C6.78318 10.8216 6.7037 10.8536 6.62537 10.8771L6.83064 11.3803C6.98102 11.7496 7.4596 11.8451 7.82497 11.7205L8.46136 11.5043C8.58086 11.4626 8.70952 11.5118 8.77584 11.613L10.4906 14.0133C10.5644 14.1197 10.5535 14.2592 10.4706 14.3512L9.20811 15.7532C9.14521 15.8224 9.05316 15.8527 8.96739 15.8396C7.30922 15.5863 5.87919 17.0026 6.10962 18.659C6.15879 19.0101 5.62303 19.0839 5.57443 18.7322C5.30226 16.7733 6.94557 15.0843 8.90106 15.2867L9.92455 14.1505L8.44535 12.0795L7.99765 12.2328C7.3704 12.4455 6.59678 12.2311 6.33204 11.5838L6.06045 10.9183C5.32857 10.809 4.71962 10.088 4.66873 9.36872L4.41371 5.75563C4.41257 5.74991 4.41257 5.74362 4.41257 5.73733C4.41257 5.33537 4.24847 5.09808 3.95343 4.98772C3.41309 4.78531 2.60345 5.09179 2.63261 5.78822L2.85961 11.0023C2.86132 11.0303 2.85789 11.0578 2.85218 11.0818L1.875 14.8018C1.63542 15.7132 1.62627 16.4279 1.78123 17.0186C1.93332 17.603 2.24609 18.0741 2.65434 18.5018C2.66749 18.5144 2.67664 18.527 2.68579 18.5407Z" />
</g>
</svg>
