<svg viewBox="0 0 32 21" fill="none" xmlns="http://www.w3.org/2000/svg">
<path d="M23.1384 4.81445C19.4658 4.81445 16.4883 7.79193 16.4883 11.4646C16.4883 15.1372 19.4658 18.1147 23.1384 18.1147C26.811 18.1147 29.788 15.1376 29.788 11.4646C29.788 7.79193 26.811 4.81445 23.1384 4.81445ZM21.0293 16.2512C20.9944 16.1671 22.6132 11.4646 22.6132 11.4646H20.9536L22.3239 6.677H25.2568L23.4147 10.3041H25.3227C25.3227 10.3041 21.0646 16.3352 21.0293 16.2512Z"/>
<mask id="mask0_557_3016" style="mask-type:luminance" maskUnits="userSpaceOnUse" x="0" y="0">
<path d="M0 0H32V20.501H0V0Z" fill="white"/>
</mask>
<g mask="url(#mask0_557_3016)">
<path d="M31.8217 11.3863C31.726 11.2976 31.5965 11.2531 31.4664 11.2642L31.2004 11.2874C31.1326 11.2935 31.0685 11.3139 31.0095 11.3478C30.8697 11.4286 30.7811 11.579 30.7783 11.7406C30.73 14.4706 29.2914 16.9145 26.9301 18.2779C26.9106 18.2891 26.8916 18.3002 26.8721 18.3113C23.2013 20.3894 18.5062 19.1031 16.4058 15.4439C14.2981 11.7722 15.5663 7.06314 19.2329 4.94612C22.7606 2.90944 27.3257 4.02205 29.5319 7.41327C29.5654 7.46296 29.6067 7.53261 29.6466 7.6018C29.4646 7.68724 29.2607 7.78569 29.0782 7.87252C28.9872 7.91571 28.9803 8.04248 29.0662 8.09495C29.5426 8.3861 30.0659 8.76781 30.5582 9.23588C30.7081 9.37891 30.8312 9.50521 30.9654 9.66124C31.0313 9.73786 31.1563 9.71 31.1832 9.61248C31.2463 9.38726 31.2997 9.14626 31.3341 8.92987C31.4353 8.28534 31.5045 7.62223 31.4901 6.97816C31.4883 6.88808 31.3959 6.8291 31.3132 6.86439C31.1289 6.94426 30.9278 7.0311 30.7416 7.11236C30.6924 7.02646 30.6469 6.94752 30.6301 6.92105C30.039 5.96818 29.2863 5.14858 28.391 4.48223C27.4748 3.80055 26.4486 3.30739 25.3397 3.01624C24.9083 2.90294 24.4723 2.8226 24.0344 2.77477V2.12978H24.9998C25.2166 2.12978 25.3926 1.95332 25.3926 1.73693V0.392605C25.3926 0.176213 25.2166 -0.000244141 24.9998 -0.000244141H21.0857C20.8693 -0.000244141 20.6928 0.176213 20.6928 0.392605V1.73646C20.6928 1.95332 20.8693 2.12931 21.0857 2.12931H22.0515V2.78267C22.0214 2.78592 21.9912 2.78917 21.961 2.79288C20.9872 2.9164 20.0511 3.19781 19.1707 3.63105L7.58068 4.05594L17.8426 4.43208C17.4404 4.72369 17.0676 5.04875 16.7221 5.40166L1.22173 5.83351L15.993 6.2454C15.9875 6.25237 15.9819 6.25887 15.9763 6.2663C15.7548 6.5607 15.5547 6.86811 15.3726 7.18527L4.59763 7.61155L14.9492 8.02158C14.814 8.32806 14.6956 8.64243 14.5953 8.96516L2.42071 9.38959L14.3766 9.80658C14.3116 10.1177 14.2638 10.4307 14.2326 10.7451L0 11.1676L14.1904 11.5888C14.1895 11.9036 14.2052 12.2189 14.2382 12.5338L5.06246 12.9457L14.3645 13.3627C14.43 13.6886 14.514 14.01 14.6157 14.3253L7.41073 14.7232L14.9227 15.1384C15.0583 15.4509 15.212 15.7569 15.3847 16.0559C15.3926 16.0694 15.401 16.0819 15.4089 16.0954L3.57 16.5013L15.9591 16.9262C16.2136 17.2684 16.4913 17.5911 16.7913 17.892L6.08962 18.3113L17.8147 18.7711C18.3042 19.1309 18.8247 19.437 19.3731 19.6877L1.12375 20.0573L23.0796 20.5013C23.446 20.5017 23.8129 20.4794 24.1797 20.4339C25.3606 20.2872 26.4862 19.9087 27.525 19.3088C28.2141 18.9113 28.8447 18.4256 29.3991 17.866C29.9373 17.3227 30.4035 16.7107 30.7852 16.0462C31.538 14.7358 31.9475 13.2438 31.9689 11.7323C31.9712 11.6018 31.9173 11.4755 31.8217 11.3863Z"/>
</g>
</svg>
