<svg viewBox="0 0 22 24" fill="none" xmlns="http://www.w3.org/2000/svg">
<mask id="mask0_557_3025" style="mask-type:luminance" maskUnits="userSpaceOnUse" x="0" y="0">
<path d="M0.261719 0H21.736V24H0.261719V0Z" fill="white"/>
</mask>
<g mask="url(#mask0_557_3025)">
<path fill-rule="evenodd" clip-rule="evenodd" d="M9.96569 0L19.6703 4.15893V12.006C19.6703 13.1995 19.492 14.3373 19.1618 15.3992C18.746 15.2664 18.3057 15.1886 17.8492 15.1742C18.186 14.1758 18.3673 13.1097 18.3673 12.006V5.28122C18.3673 5.10654 18.2548 4.95757 18.0981 4.90314L10.1218 1.48482C10.0183 1.44055 9.90587 1.44414 9.80955 1.48482L1.80756 4.9145C1.65621 4.97911 1.56467 5.12628 1.56467 5.28122H1.56408V12.006C1.56408 14.4384 2.44528 16.6848 3.92292 18.4304C5.40834 20.1845 7.49678 21.4312 9.89869 21.8499C9.94894 21.8583 9.998 21.8571 10.0453 21.8475C11.0838 21.6651 12.0631 21.3283 12.9611 20.8623C13.04 21.2918 13.1764 21.7022 13.3613 22.0839C12.3162 22.5989 11.1753 22.9734 9.96569 23.184C4.38535 22.2113 0.261719 17.7652 0.261719 12.006V4.15893L9.96569 0ZM17.6955 15.9711C15.4784 15.9711 13.6813 17.7688 13.6813 19.9858C13.6813 22.2029 15.4784 24 17.6955 24C19.9125 24 21.7096 22.2029 21.7096 19.9858C21.7096 17.7682 19.9125 15.9711 17.6955 15.9711ZM19.9293 19.1429C18.8704 20.212 18.5522 20.5452 17.4885 21.6083C17.2719 21.8248 16.9214 21.8248 16.7048 21.6083L15.4635 20.3669C15.2469 20.151 15.2469 19.7998 15.4635 19.5832C15.68 19.3667 16.0306 19.3667 16.2472 19.5832L17.0961 20.4315L19.145 18.3634C19.3604 18.1469 19.7103 18.1457 19.9269 18.361C20.1435 18.5764 20.1447 18.9264 19.9293 19.1429ZM9.96569 2.28645L2.36392 5.54444V12.006C2.36392 14.244 3.17393 16.3103 4.53252 17.9148C5.88573 19.5132 7.78333 20.6535 9.96569 21.0501C11.0126 20.8599 11.9943 20.4985 12.8815 19.9972C12.8815 19.9936 12.8809 19.9894 12.8809 19.9852C12.8809 17.569 14.6624 15.5685 16.983 15.2239C17.3617 14.2195 17.5675 13.1343 17.5675 12.006V5.54444L9.96569 2.28645ZM5.07153 15.5356V9.56399H6.5731V15.5356H5.07153ZM15.1105 12.7203H14.5045C14.9795 12.7203 15.3684 13.1091 15.3684 13.5841C15.3684 14.0591 14.9795 14.448 14.5045 14.448H13.9888C14.4644 14.448 14.8527 14.8368 14.8527 15.3118C14.8527 15.7868 14.4644 16.1757 13.9888 16.1757H12.093C9.92621 16.5514 8.67111 16.7793 7.37294 15.5356V9.56399C8.43361 8.76773 9.78682 8.08515 9.78682 6.57879V4.76554C10.9827 4.76554 11.9608 5.74366 11.9608 6.93953V8.34598C11.9267 8.59604 11.7873 8.94182 11.5271 9.26427H14.7468C15.2218 9.26427 15.6106 9.65372 15.6106 10.1287C15.6106 10.6037 15.2218 10.9926 14.7468 10.9926H15.1105C15.5855 10.9926 15.9744 11.3814 15.9744 11.8564C15.9744 12.3314 15.5855 12.7203 15.1105 12.7203Z" />
</g>
</svg>
